<?xml version="1.0" standalone="no"?>
<svg xmlns:xlink="http://www.w3.org/1999/xlink" id="wave" style="transform:rotate(0deg); transition: 0.3s" viewBox="0 0 1440 490" version="1.1" xmlns="http://www.w3.org/2000/svg"><defs><linearGradient id="sw-gradient-0" x1="0" x2="0" y1="1" y2="0"><stop stop-color="rgba(243, 106, 62, 1)" offset="0%"/><stop stop-color="rgba(255, 179, 11, 1)" offset="100%"/></linearGradient></defs><path style="transform:translate(0, 0px); opacity:1" fill="url(#sw-gradient-0)" d="M0,294L21.8,285.8C43.6,278,87,261,131,277.7C174.5,294,218,343,262,326.7C305.5,310,349,229,393,179.7C436.4,131,480,114,524,130.7C567.3,147,611,196,655,179.7C698.2,163,742,82,785,65.3C829.1,49,873,98,916,171.5C960,245,1004,343,1047,334.8C1090.9,327,1135,212,1178,171.5C1221.8,131,1265,163,1309,171.5C1352.7,180,1396,163,1440,147C1483.6,131,1527,114,1571,130.7C1614.5,147,1658,196,1702,179.7C1745.5,163,1789,82,1833,73.5C1876.4,65,1920,131,1964,179.7C2007.3,229,2051,261,2095,277.7C2138.2,294,2182,294,2225,261.3C2269.1,229,2313,163,2356,155.2C2400,147,2444,196,2487,228.7C2530.9,261,2575,278,2618,261.3C2661.8,245,2705,196,2749,163.3C2792.7,131,2836,114,2880,114.3C2923.6,114,2967,131,3011,163.3C3054.5,196,3098,245,3120,269.5L3141.8,294L3141.8,490L3120,490C3098.2,490,3055,490,3011,490C2967.3,490,2924,490,2880,490C2836.4,490,2793,490,2749,490C2705.5,490,2662,490,2618,490C2574.5,490,2531,490,2487,490C2443.6,490,2400,490,2356,490C2312.7,490,2269,490,2225,490C2181.8,490,2138,490,2095,490C2050.9,490,2007,490,1964,490C1920,490,1876,490,1833,490C1789.1,490,1745,490,1702,490C1658.2,490,1615,490,1571,490C1527.3,490,1484,490,1440,490C1396.4,490,1353,490,1309,490C1265.5,490,1222,490,1178,490C1134.5,490,1091,490,1047,490C1003.6,490,960,490,916,490C872.7,490,829,490,785,490C741.8,490,698,490,655,490C610.9,490,567,490,524,490C480,490,436,490,393,490C349.1,490,305,490,262,490C218.2,490,175,490,131,490C87.3,490,44,490,22,490L0,490Z"/><defs><linearGradient id="sw-gradient-1" x1="0" x2="0" y1="1" y2="0"><stop stop-color="rgba(243, 106, 62, 1)" offset="0%"/><stop stop-color="rgba(255, 179, 11, 1)" offset="100%"/></linearGradient></defs><path style="transform:translate(0, 50px); opacity:0.9" fill="url(#sw-gradient-1)" d="M0,392L21.8,375.7C43.6,359,87,327,131,261.3C174.5,196,218,98,262,49C305.5,0,349,0,393,57.2C436.4,114,480,229,524,285.8C567.3,343,611,343,655,294C698.2,245,742,147,785,138.8C829.1,131,873,212,916,204.2C960,196,1004,98,1047,114.3C1090.9,131,1135,261,1178,302.2C1221.8,343,1265,294,1309,269.5C1352.7,245,1396,245,1440,269.5C1483.6,294,1527,343,1571,343C1614.5,343,1658,294,1702,228.7C1745.5,163,1789,82,1833,40.8C1876.4,0,1920,0,1964,40.8C2007.3,82,2051,163,2095,179.7C2138.2,196,2182,147,2225,155.2C2269.1,163,2313,229,2356,269.5C2400,310,2444,327,2487,326.7C2530.9,327,2575,310,2618,285.8C2661.8,261,2705,229,2749,245C2792.7,261,2836,327,2880,310.3C2923.6,294,2967,196,3011,147C3054.5,98,3098,98,3120,98L3141.8,98L3141.8,490L3120,490C3098.2,490,3055,490,3011,490C2967.3,490,2924,490,2880,490C2836.4,490,2793,490,2749,490C2705.5,490,2662,490,2618,490C2574.5,490,2531,490,2487,490C2443.6,490,2400,490,2356,490C2312.7,490,2269,490,2225,490C2181.8,490,2138,490,2095,490C2050.9,490,2007,490,1964,490C1920,490,1876,490,1833,490C1789.1,490,1745,490,1702,490C1658.2,490,1615,490,1571,490C1527.3,490,1484,490,1440,490C1396.4,490,1353,490,1309,490C1265.5,490,1222,490,1178,490C1134.5,490,1091,490,1047,490C1003.6,490,960,490,916,490C872.7,490,829,490,785,490C741.8,490,698,490,655,490C610.9,490,567,490,524,490C480,490,436,490,393,490C349.1,490,305,490,262,490C218.2,490,175,490,131,490C87.3,490,44,490,22,490L0,490Z"/></svg>